<svg width="127" height="70" viewBox="0 0 127 70" fill="none" xmlns="http://www.w3.org/2000/svg">
<path d="M124.591 59.7603C125.13 59.7603 125.648 59.5464 126.029 59.1656C126.411 58.7848 126.625 58.2683 126.625 57.7297V37.1321C126.625 36.7229 126.501 36.3232 126.269 35.9857L112.223 15.4867C112.036 15.2141 111.786 14.9912 111.493 14.8371C111.201 14.683 110.875 14.6025 110.544 14.6025H92.5261V2.32238C92.5261 1.78383 92.3117 1.26732 91.9302 0.886506C91.5487 0.505688 91.0313 0.291748 90.4918 0.291748H19.968C19.4285 0.291748 18.911 0.505688 18.5295 0.886506C18.148 1.26732 17.9337 1.78383 17.9337 2.32238V13.4421H2.53091C1.99137 13.4421 1.47393 13.6561 1.09242 14.0369C0.710912 14.4177 0.496582 14.9342 0.496582 15.4728C0.496582 16.0113 0.710912 16.5278 1.09242 16.9087C1.47393 17.2895 1.99137 17.5034 2.53091 17.5034H17.9337V20.67H11.4436C10.9041 20.67 10.3866 20.884 10.0051 21.2648C9.62359 21.6456 9.40926 22.1621 9.40926 22.7007C9.40926 23.2392 9.62359 23.7557 10.0051 24.1366C10.3866 24.5174 10.9041 24.7313 11.4436 24.7313H17.9337V27.8933H2.53091C1.99137 27.8933 1.47393 28.1072 1.09242 28.4881C0.710912 28.8689 0.496582 29.3854 0.496582 29.9239C0.496582 30.4625 0.710912 30.979 1.09242 31.3598C1.47393 31.7406 1.99137 31.9546 2.53091 31.9546H17.9337V35.1212H11.4436C10.9041 35.1212 10.3866 35.3351 10.0051 35.716C9.62359 36.0968 9.40926 36.6133 9.40926 37.1518C9.40926 37.6904 9.62359 38.2069 10.0051 38.5877C10.3866 38.9685 10.9041 39.1825 11.4436 39.1825H17.9337V57.7297C17.9337 58.2683 18.148 58.7848 18.5295 59.1656C18.911 59.5464 19.4285 59.7603 19.968 59.7603H28.0286C28.3848 61.7411 29.2595 63.5926 30.5639 65.127H2.53091C1.99137 65.127 1.47393 65.341 1.09242 65.7218C0.710912 66.1026 0.496582 66.6191 0.496582 67.1577C0.496582 67.6962 0.710912 68.2127 1.09242 68.5935C1.47393 68.9743 1.99137 69.1883 2.53091 69.1883H124.591C125.13 69.1883 125.648 68.9743 126.029 68.5935C126.411 68.2127 126.625 67.6962 126.625 67.1577C126.625 66.6191 126.411 66.1026 126.029 65.7218C125.648 65.341 125.13 65.127 124.591 65.127H116.293C117.597 63.5926 118.472 61.7411 118.828 59.7603H124.591ZM109.471 18.6638L122.556 37.7564V55.6991H118.828C118.354 53.0552 116.963 50.662 114.9 48.9383C112.836 47.2146 110.231 46.2701 107.54 46.2701C104.849 46.2701 102.244 47.2146 100.18 48.9383C98.1168 50.662 96.7262 53.0552 96.2518 55.6991H92.5261V18.6638H109.471ZM50.6038 59.7603H96.253C96.6079 61.7406 97.4809 63.5921 98.7837 65.127H48.0685C49.3729 63.5926 50.2476 61.7411 50.6038 59.7603ZM22.0023 39.1871H35.8555C36.3951 39.1871 36.9125 38.9732 37.294 38.5924C37.6755 38.2115 37.8899 37.695 37.8899 37.1565C37.8899 36.6179 37.6755 36.1014 37.294 35.7206C36.9125 35.3398 36.3951 35.1258 35.8555 35.1258H22.0023V31.9546H26.9428C27.4824 31.9546 27.9998 31.7406 28.3813 31.3598C28.7628 30.979 28.9772 30.4625 28.9772 29.9239C28.9772 29.3854 28.7628 28.8689 28.3813 28.4881C27.9998 28.1072 27.4824 27.8933 26.9428 27.8933H22.0023V24.7313H35.8555C36.3951 24.7313 36.9125 24.5174 37.294 24.1366C37.6755 23.7557 37.8899 23.2392 37.8899 22.7007C37.8899 22.1621 37.6755 21.6456 37.294 21.2648C36.9125 20.884 36.3951 20.67 35.8555 20.67H22.0023V17.5034H26.9428C27.4824 17.5034 27.9998 17.2895 28.3813 16.9087C28.7628 16.5278 28.9772 16.0113 28.9772 15.4728C28.9772 14.9342 28.7628 14.4177 28.3813 14.0369C27.9998 13.6561 27.4824 13.4421 26.9428 13.4421H22.0023V4.35302H88.4574V55.6991H50.6038C50.1295 53.0552 48.7388 50.662 46.6752 48.9383C44.6116 47.2146 42.0065 46.2701 39.3156 46.2701C36.6248 46.2701 34.0197 47.2146 31.9561 48.9383C29.8924 50.662 28.5018 53.0552 28.0274 55.6991H22.0023V39.1871ZM31.9054 57.7285C31.9054 56.2655 32.3401 54.8353 33.1544 53.6188C33.9687 52.4023 35.1261 51.4542 36.4802 50.8943C37.8344 50.3344 39.3244 50.1879 40.762 50.4734C42.1995 50.7588 43.52 51.4633 44.5564 52.4979C45.5928 53.5324 46.2986 54.8505 46.5846 56.2854C46.8705 57.7203 46.7238 59.2077 46.1629 60.5594C45.602 61.9111 44.6521 63.0664 43.4334 63.8792C42.2147 64.692 40.7819 65.1259 39.3162 65.1259C37.3516 65.1237 35.4681 64.3438 34.0788 62.9573C32.6895 61.5707 31.9079 59.6907 31.9054 57.7297V57.7285ZM100.13 57.7285C100.13 56.2655 100.564 54.8353 101.379 53.6188C102.193 52.4023 103.35 51.4542 104.705 50.8943C106.059 50.3344 107.549 50.1879 108.986 50.4734C110.424 50.7588 111.744 51.4633 112.781 52.4979C113.817 53.5324 114.523 54.8505 114.809 56.2854C115.095 57.7203 114.948 59.2077 114.387 60.5594C113.826 61.9111 112.876 63.0664 111.658 63.8792C110.439 64.692 109.006 65.1259 107.541 65.1259C105.576 65.1237 103.692 64.3438 102.303 62.9573C100.914 61.5707 100.132 59.6907 100.13 57.7297V57.7285Z" fill="white"/>
<path d="M96.8366 37.8585H116.308C116.681 37.8586 117.047 37.7563 117.366 37.5628C117.685 37.3693 117.944 37.092 118.115 36.7613C118.287 36.4305 118.364 36.0591 118.338 35.6875C118.312 35.316 118.185 34.9587 117.969 34.6548L108.718 21.6007C108.53 21.3355 108.281 21.1193 107.992 20.9701C107.703 20.8209 107.382 20.7431 107.057 20.7432H96.8366C96.297 20.7432 95.7796 20.9571 95.3981 21.3379C95.0166 21.7187 94.8022 22.2352 94.8022 22.7738V35.8279C94.8022 36.3664 95.0166 36.8829 95.3981 37.2638C95.7796 37.6446 96.297 37.8585 96.8366 37.8585ZM98.8709 24.8044H106.005L112.377 33.7972H98.8709V24.8044Z" fill="white"/>
</svg>
