<svg width="127" height="113" viewBox="0 0 127 113" fill="none" xmlns="http://www.w3.org/2000/svg">
<path d="M117.652 65.9125C117.64 65.8983 117.639 65.8861 117.626 65.8719L110.609 58.1006C110.442 57.9154 110.238 57.7672 110.009 57.6658C109.781 57.5644 109.534 57.5119 109.284 57.5118H90.262V24.5629C90.2602 24.1347 90.102 23.7219 89.8169 23.4016C89.8107 23.3935 89.8107 23.3834 89.8036 23.3752L83.0703 15.9186C82.9034 15.7334 82.6992 15.5852 82.471 15.4838C82.2429 15.3824 81.9959 15.3299 81.746 15.3298H43.8988C43.649 15.3299 43.402 15.3824 43.1738 15.4838C42.9457 15.5852 42.7415 15.7334 42.5746 15.9186L35.8413 23.3752C35.8331 23.3844 35.8331 23.3945 35.826 23.4037C35.5424 23.7239 35.3853 24.1358 35.3839 24.5629V57.5118H16.3604C16.1106 57.5119 15.8636 57.5644 15.6354 57.6658C15.4073 57.7672 15.2031 57.9154 15.0362 58.1006L8.01866 65.8719C8.00949 65.882 8.00949 65.8932 8.00134 65.9034C7.71901 66.2233 7.56266 66.6345 7.56128 67.0605V111.024C7.56128 111.495 7.74909 111.947 8.08341 112.28C8.41772 112.613 8.87114 112.8 9.34393 112.8H116.303C116.776 112.8 117.229 112.613 117.563 112.28C117.898 111.947 118.086 111.495 118.086 111.024V67.0605C118.084 66.6384 117.93 66.2309 117.652 65.9125ZM112.3 65.2842H97.9875L95.6069 61.0656H108.491L112.3 65.2842ZM83.9616 68.8359H95.1668V76.2459L90.3893 73.7711C90.1354 73.6396 89.8535 73.571 89.5673 73.571C89.2811 73.571 88.9992 73.6396 88.7452 73.7711L83.9616 76.2459V68.8359ZM30.4821 68.8359H41.6873V76.2459L36.9098 73.7711C36.6559 73.6396 36.3739 73.571 36.0878 73.571C35.8016 73.571 35.5196 73.6396 35.2657 73.7711L30.4821 76.2459V68.8359ZM57.5254 26.3392H68.1194V33.2609L63.6374 30.9405C63.3834 30.809 63.1015 30.7404 62.8153 30.7404C62.5291 30.7404 62.2472 30.809 61.9932 30.9405L57.5112 33.2609L57.5254 26.3392ZM53.9601 26.3392V36.1853C53.9601 36.4905 54.0389 36.7905 54.1891 37.0565C54.3392 37.3225 54.5556 37.5454 54.8174 37.7038C55.0791 37.8622 55.3774 37.9508 55.6835 37.9609C55.9896 37.9711 56.2931 37.9025 56.5648 37.7617L62.8224 34.5196L69.0841 37.7678C69.3561 37.9078 69.6597 37.9756 69.9656 37.9647C70.2715 37.9539 70.5694 37.8647 70.8307 37.7058C71.092 37.5469 71.3078 37.3237 71.4574 37.0575C71.607 36.7914 71.6853 36.4914 71.6848 36.1864V26.3402H86.6967V64.9695H38.9482V26.3392H53.9601ZM91.5201 61.0646L93.8966 65.2832H90.262V61.0656L91.5201 61.0646ZM84.4811 22.7865H70.9493L68.7459 18.8826H80.9545L84.4811 22.7865ZM64.656 18.8836L66.8594 22.7875H58.7865L60.9888 18.8836H64.656ZM44.6903 18.8836H56.8989L54.6956 22.7875H41.1678L44.6903 18.8836ZM35.3829 65.2832H31.7483L34.1289 61.0646H35.3839L35.3829 65.2832ZM17.1489 61.0646H30.038L27.6574 65.2832H13.3452L17.1489 61.0646ZM11.1256 68.8359H26.9148V79.1743C26.9147 79.4795 26.9936 79.7795 27.1437 80.0455C27.2939 80.3114 27.5103 80.5344 27.772 80.6928C28.0338 80.8512 28.332 80.9397 28.6381 80.9499C28.9442 80.96 29.2477 80.8914 29.5195 80.7507L36.0796 77.3523L42.6398 80.7507C42.9115 80.8914 43.215 80.96 43.5211 80.9499C43.8272 80.9397 44.1255 80.8512 44.3872 80.6928C44.649 80.5344 44.8653 80.3114 45.0155 80.0455C45.1656 79.7795 45.2445 79.4795 45.2445 79.1743V68.8359H61.0337V109.247H11.1195L11.1256 68.8359ZM114.519 109.247H64.6051V68.8359H80.3943V79.1743C80.3942 79.4795 80.4731 79.7795 80.6233 80.0455C80.7734 80.3114 80.9898 80.5344 81.2515 80.6928C81.5133 80.8512 81.8116 80.9397 82.1176 80.9499C82.4237 80.96 82.7272 80.8914 82.999 80.7507L89.5591 77.3523L96.1193 80.7507C96.391 80.8914 96.6946 80.96 97.0006 80.9499C97.3067 80.9397 97.605 80.8512 97.8667 80.6928C98.1285 80.5344 98.3449 80.3114 98.495 80.0455C98.6452 79.7795 98.724 79.4795 98.724 79.1743V68.8359H114.513L114.519 109.247Z" fill="white"/>
</svg>
