<svg width="127" height="97" viewBox="0 0 127 97" fill="none" xmlns="http://www.w3.org/2000/svg">
<path d="M78.5113 37.0278H48.0545C45.9446 37.0303 43.9218 37.868 42.4298 39.3572C40.9379 40.8465 40.0987 42.8656 40.0962 44.9717V45.6215C40.099 47.7274 40.9383 49.7462 42.4302 51.2352C43.9222 52.7241 45.9448 53.5617 48.0545 53.5642H78.5113C80.6212 53.5617 82.644 52.724 84.1359 51.2348C85.6278 49.7455 86.4671 47.7264 86.4696 45.6203V44.9705C86.4668 42.8646 85.6274 40.8458 84.1355 39.3568C82.6436 37.8679 80.621 37.0303 78.5113 37.0278ZM82.4009 45.6215C82.3994 46.6506 81.989 47.6372 81.2599 48.3648C80.5307 49.0924 79.5423 49.5017 78.5113 49.5029H48.0545C47.0233 49.5017 46.0346 49.0922 45.3055 48.3644C44.5763 47.6365 44.1661 46.6497 44.1648 45.6203V44.9705C44.1664 43.9414 44.5767 42.9548 45.3059 42.2272C46.035 41.4996 47.0235 41.0903 48.0545 41.0891H78.5113C79.5425 41.0903 80.5311 41.4998 81.2603 42.2276C81.9895 42.9555 82.3997 43.9423 82.4009 44.9717V45.6215Z" fill="white"/>
<path d="M124.313 92.4213H111V29.2512H114.541C115.081 29.2512 115.598 29.0372 115.979 28.6564C116.361 28.2756 116.575 27.7591 116.575 27.2206V12.5478C116.575 12.1273 116.443 11.7176 116.198 11.3758L116.189 11.3584L108.831 1.20754C108.642 0.947436 108.394 0.735688 108.108 0.589656C107.821 0.443624 107.504 0.367467 107.183 0.367432H19.3833C19.0616 0.367467 18.7444 0.443624 18.4579 0.589656C18.1714 0.735688 17.9236 0.947436 17.7349 1.20754L10.3764 11.3584V11.3723C10.129 11.7149 9.99559 12.1265 9.99515 12.5489V27.2206C9.99515 27.7591 10.2095 28.2756 10.591 28.6564C10.9725 29.0372 11.4899 29.2512 12.0295 29.2512H15.5704V92.4202H2.25308C1.71354 92.4202 1.1961 92.6341 0.81459 93.0149C0.43308 93.3958 0.21875 93.9123 0.21875 94.4508C0.21875 94.9894 0.43308 95.5059 0.81459 95.8867C1.1961 96.2675 1.71354 96.4815 2.25308 96.4815H124.313C124.852 96.4815 125.37 96.2675 125.751 95.8867C126.133 95.5059 126.347 94.9894 126.347 94.4508C126.347 93.9123 126.133 93.3958 125.751 93.0149C125.37 92.6341 124.852 92.4202 124.313 92.4202V92.4213ZM20.4225 4.42638H106.143L110.561 10.516H16.0086L20.4225 4.42638ZM14.0592 14.5772H112.507V25.1899H14.0592V14.5772ZM19.639 92.4202V29.2512H106.941V92.4202H19.639Z" fill="white"/>
</svg>
