<svg width="108" height="97" viewBox="0 0 108 97" fill="none" xmlns="http://www.w3.org/2000/svg">
<path d="M105.572 80.0628H97.072V13.7416C97.0707 13.3339 96.9227 12.9403 96.6549 12.6325C96.6478 12.6194 96.6399 12.6066 96.6313 12.5943L85.7896 0.568238C85.6288 0.389522 85.432 0.246576 85.2122 0.148681C84.9924 0.0507853 84.7544 0.000128906 84.5137 0H23.5731C23.3324 0.000128906 23.0945 0.0507853 22.8746 0.148681C22.6548 0.246576 22.4581 0.389522 22.2972 0.568238L11.4545 12.5943C11.4496 12.6002 11.4545 12.609 11.4447 12.6149C11.1679 12.9249 11.0143 13.3253 11.0129 13.7406V80.0628H2.51402C2.05847 80.0628 1.62159 80.2435 1.29947 80.565C0.97735 80.8866 0.796387 81.3226 0.796387 81.7774C0.796387 82.2321 0.97735 82.6682 1.29947 82.9897C1.62159 83.3112 2.05847 83.4919 2.51402 83.4919H40.9673C43.8939 86.9096 48.0464 89.0455 52.5332 89.4408C57.0199 89.8361 61.4831 88.4593 64.9641 85.6061L75.6154 96.239C75.9375 96.5606 76.3744 96.7412 76.83 96.7412C77.2856 96.7412 77.7225 96.5606 78.0446 96.239C78.3667 95.9175 78.5477 95.4814 78.5477 95.0266C78.5477 94.5719 78.3667 94.1358 78.0446 93.8142L67.7035 83.4919H105.572C106.027 83.4919 106.464 83.3112 106.786 82.9897C107.109 82.6682 107.289 82.2321 107.289 81.7774C107.289 81.3226 107.109 80.8866 106.786 80.565C106.464 80.2435 106.027 80.0628 105.572 80.0628ZM91.4981 12.0231H66.454L61.6103 3.42903H83.7481L91.4981 12.0231ZM44.3545 15.4522H63.7313V29.6581L54.835 25.0534C54.5905 24.9265 54.319 24.8603 54.0434 24.8603C53.7678 24.8603 53.4963 24.9265 53.2518 25.0534L44.3555 29.6689L44.3545 15.4522ZM57.6686 3.42903L62.5123 12.0231H45.5735L50.4173 3.42609L57.6686 3.42903ZM24.3377 3.42903H46.4755L41.6318 12.0231H16.5878L24.3377 3.42903ZM14.4491 80.0628V15.4522H40.9193V32.4885C40.9192 32.7831 40.9952 33.0727 41.1399 33.3294C41.2846 33.5861 41.493 33.8012 41.7452 33.9541C41.9974 34.107 42.2849 34.1925 42.5798 34.2023C42.8747 34.2121 43.1671 34.1459 43.429 34.0101L54.0429 28.503L64.6569 34.0101C64.9187 34.1459 65.2112 34.2121 65.5061 34.2023C65.801 34.1925 66.0884 34.107 66.3406 33.9541C66.5928 33.8012 66.8013 33.5861 66.946 33.3294C67.0907 33.0727 67.1666 32.7831 67.1666 32.4885V15.4522H93.6368V80.0628H69.4192C70.7601 77.4367 71.4036 74.5109 71.2879 71.5656C71.1723 68.6202 70.3015 65.7537 68.7587 63.2403C67.2159 60.727 65.0529 58.6508 62.4764 57.2104C59.9 55.7701 56.9964 55.0137 54.0434 55.0137C51.0904 55.0137 48.1868 55.7701 45.6104 57.2104C43.034 58.6508 40.8709 60.727 39.3282 63.2403C37.7854 65.7537 36.9145 68.6202 36.7989 71.5656C36.6833 74.5109 37.3267 77.4367 38.6677 80.0628H14.4491ZM40.2204 72.276C40.2214 69.5474 41.0329 66.8802 42.5523 64.6119C44.0717 62.3436 46.2309 60.5759 48.7567 59.5324C51.2825 58.4888 54.0616 58.2163 56.7426 58.7492C59.4235 59.2821 61.886 60.5966 63.8187 62.5264C65.7513 64.4562 67.0673 66.9147 67.6002 69.591C68.1331 72.2673 67.8591 75.0412 66.8128 77.5621C65.7664 80.083 63.9948 82.2375 61.7218 83.7534C59.4488 85.2693 56.7766 86.0783 54.0429 86.0783C50.3775 86.0739 46.8635 84.6182 44.2721 82.0306C41.6807 79.4429 40.2235 75.9348 40.2204 72.276Z" fill="white"/>
<path d="M54.0428 62.5645C53.5873 62.5645 53.1504 62.7451 52.8283 63.0666C52.5062 63.3882 52.3252 63.8242 52.3252 64.279C52.3252 64.7337 52.5062 65.1698 52.8283 65.4913C53.1504 65.8128 53.5873 65.9935 54.0428 65.9935C55.7121 65.9953 57.3125 66.6577 58.4934 67.8354C59.6742 69.0132 60.339 70.6102 60.3421 72.2764C60.3421 72.7312 60.5231 73.1672 60.8452 73.4888C61.1673 73.8103 61.6042 73.991 62.0597 73.991C62.5153 73.991 62.9522 73.8103 63.2743 73.4888C63.5964 73.1672 63.7774 72.7312 63.7774 72.2764C63.7732 69.7011 62.7461 67.2325 60.9213 65.4119C59.0965 63.5913 56.6229 62.5673 54.0428 62.5645Z" fill="white"/>
</svg>
