<svg width="108" height="109" viewBox="0 0 108 109" fill="none" xmlns="http://www.w3.org/2000/svg">
<path d="M75.0929 82.3697H91.6032C91.9196 82.3698 92.2299 82.2831 92.5002 82.119C92.7704 81.9549 92.9903 81.7198 93.1357 81.4393C93.2811 81.1589 93.3465 80.8439 93.3246 80.5289C93.3028 80.2139 93.1945 79.9109 93.0118 79.6532L85.1676 68.5843C85.0082 68.3595 84.7971 68.1762 84.552 68.0497C84.3069 67.9232 84.035 67.8572 83.7591 67.8572H75.0929C74.6354 67.8572 74.1966 68.0386 73.8732 68.3615C73.5497 68.6844 73.3679 69.1223 73.3679 69.579V80.6479C73.3679 81.1046 73.5497 81.5425 73.8732 81.8654C74.1966 82.1883 74.6354 82.3697 75.0929 82.3697ZM76.8178 71.3008H82.866L88.2696 78.9261H76.8178V71.3008Z" fill="white"/>
<path d="M106.019 91.9634H91.5914C92.6974 90.6623 93.4391 89.0924 93.7412 87.4128H98.6263C99.0837 87.4128 99.5225 87.2314 99.846 86.9085C100.169 86.5856 100.351 86.1477 100.351 85.691V68.2267C100.351 67.8797 100.246 67.5409 100.05 67.2546L88.1395 49.873C87.9812 49.642 87.7688 49.4529 87.5208 49.3223C87.2728 49.1917 86.9966 49.1234 86.7161 49.1233H69.713C69.2555 49.1233 68.8167 49.3047 68.4932 49.6276C68.1697 49.9505 67.988 50.3885 67.988 50.8451V65.398H66.5095V33.4832C66.5095 33.0265 66.3277 32.5886 66.0042 32.2657C65.6807 31.9428 65.242 31.7613 64.7845 31.7613H60.3164L42.639 23.9993C43.4245 23.0905 43.8682 21.9368 43.8938 20.7367C43.9029 19.9254 43.7234 19.123 43.3694 18.3927C43.0153 17.6623 42.4964 17.0239 41.8534 16.5276C41.3824 16.137 41.0062 15.6449 40.7532 15.0884C40.5002 14.5318 40.3769 13.9252 40.3926 13.3142H42.1668C42.6243 13.3142 43.0631 13.1328 43.3866 12.8099C43.7101 12.4869 43.8918 12.049 43.8918 11.5923V3.44366H106.019C106.476 3.44366 106.915 3.26225 107.239 2.93935C107.562 2.61644 107.744 2.17849 107.744 1.72183C107.744 1.26517 107.562 0.827217 107.239 0.504312C106.915 0.181406 106.476 0 106.019 0H2.52135C2.06386 0 1.62511 0.181406 1.30162 0.504312C0.978123 0.827217 0.796387 1.26517 0.796387 1.72183C0.796387 2.17849 0.978123 2.61644 1.30162 2.93935C1.62511 3.26225 2.06386 3.44366 2.52135 3.44366H33.4356V11.5943C33.4356 12.051 33.6173 12.4889 33.9408 12.8118C34.2643 13.1347 34.7031 13.3161 35.1605 13.3161H36.9348C36.9204 14.4541 37.1656 15.5805 37.6518 16.6099C38.138 17.6393 38.8524 18.5449 39.741 19.2579C39.9615 19.4256 40.1393 19.6428 40.26 19.8919C40.3807 20.1409 40.441 20.4148 40.436 20.6915C40.416 21.1483 40.2254 21.581 39.9018 21.9046C39.5782 22.2282 39.1449 22.4192 38.6873 22.4399H38.6804C38.4451 22.4477 38.2108 22.4059 37.9927 22.3172C37.7746 22.2285 37.5777 22.095 37.4148 21.9253C37.2466 21.7606 37.1131 21.564 37.0222 21.347C36.9313 21.1301 36.8848 20.8971 36.8855 20.6619C36.8855 20.2053 36.7038 19.7673 36.3803 19.4444C36.0568 19.1215 35.618 18.9401 35.1605 18.9401C34.7031 18.9401 34.2643 19.1215 33.9408 19.4444C33.6173 19.7673 33.4356 20.2053 33.4356 20.6619C33.4394 21.9022 33.8909 23.0996 34.7071 24.0348L17.1096 31.7643H12.5409C12.0834 31.7643 11.6447 31.9457 11.3212 32.2686C10.9977 32.5915 10.8159 33.0295 10.8159 33.4861V65.398H9.91403C9.45654 65.398 9.01779 65.5794 8.6943 65.9023C8.37081 66.2252 8.18907 66.6632 8.18907 67.1198V85.691C8.18907 86.1477 8.37081 86.5856 8.6943 86.9085C9.01779 87.2314 9.45654 87.4128 9.91403 87.4128H16.7488C17.0509 89.0924 17.7926 90.6623 18.8986 91.9634H2.52135C2.06386 91.9634 1.62511 92.1448 1.30162 92.4677C0.978123 92.7906 0.796387 93.2285 0.796387 93.6852C0.796387 94.1419 0.978123 94.5798 1.30162 94.9027C1.62511 95.2256 2.06386 95.407 2.52135 95.407H106.019C106.476 95.407 106.915 95.2256 107.239 94.9027C107.562 94.5798 107.744 94.1419 107.744 93.6852C107.744 93.2285 107.562 92.7906 107.239 92.4677C106.915 92.1448 106.476 91.9634 106.019 91.9634ZM36.8855 3.44366H40.4399V9.87051H36.8855V3.44366ZM35.8919 87.4138H74.5981C74.9001 89.0933 75.6418 90.6633 76.7478 91.9644H33.7411C34.8474 90.663 35.589 89.0927 35.8909 87.4128L35.8919 87.4138ZM77.8824 85.692C77.8824 84.0284 78.5444 82.433 79.7229 81.2567C80.9013 80.0804 82.4996 79.4196 84.1662 79.4196C85.8327 79.4196 87.431 80.0804 88.6095 81.2567C89.7879 82.433 90.4499 84.0284 90.4499 85.692V85.6979C90.4499 87.3614 89.7879 88.9568 88.6095 90.1331C87.431 91.3094 85.8327 91.9703 84.1662 91.9703C82.4996 91.9703 80.9013 91.3094 79.7229 90.1331C78.5444 88.9568 77.8824 87.3614 77.8824 85.6979V85.692ZM71.4379 52.5669H85.8054L96.9013 68.759V83.9692H93.7412C93.3389 81.7274 92.1598 79.6981 90.41 78.2365C88.6602 76.7749 86.4512 75.9741 84.1696 75.9741C81.888 75.9741 79.679 76.7749 77.9292 78.2365C76.1795 79.6981 75.0003 81.7274 74.5981 83.9692H71.4379V52.5669ZM53.4481 59.6087V40.9992H56.5284V59.6087H53.4481ZM46.9179 59.6087V40.9992H49.9982V59.6087H46.9179ZM40.3877 59.6087V40.9992H43.4679V59.6087H40.3877ZM33.8575 59.6087V40.9992H36.9377V59.6087H33.8575ZM27.3273 59.6087V40.9992H30.4075V59.6087H27.3273ZM20.797 59.6087V40.9992H23.8773V59.6087H20.797ZM14.2668 59.6087V40.9992H17.3461V59.6087H14.2668ZM59.9793 40.9992H63.0596V59.6087H59.9793V40.9992ZM38.713 26.0439L51.7458 31.7643H25.6792L38.713 26.0439ZM14.2659 35.208H63.0576V37.5585H14.2659V35.208ZM14.2659 63.0524H63.0576V65.4029H14.2659V63.0524ZM11.639 68.8417H67.988V83.9692H35.8909C35.4887 81.7274 34.3095 79.6981 32.5598 78.2365C30.81 76.7749 28.601 75.9741 26.3194 75.9741C24.0378 75.9741 21.8288 76.7749 20.079 78.2365C18.3292 79.6981 17.1501 81.7274 16.7478 83.9692H11.639V68.8417ZM20.0361 85.691C20.0361 84.4504 20.4046 83.2377 21.0951 82.2062C21.7856 81.1748 22.767 80.3708 23.9152 79.8961C25.0634 79.4213 26.3268 79.2971 27.5458 79.5391C28.7647 79.7812 29.8844 80.3785 30.7632 81.2558C31.642 82.133 32.2405 83.2506 32.4829 84.4673C32.7254 85.684 32.6009 86.9452 32.1253 88.0913C31.6497 89.2374 30.8443 90.2171 29.811 90.9063C28.7776 91.5955 27.5627 91.9634 26.3199 91.9634C24.6539 91.9615 23.0566 91.3001 21.8786 90.1242C20.7005 88.9483 20.0379 87.354 20.0361 85.691Z" fill="white"/>
</svg>
