<svg width="127" height="107" viewBox="0 0 127 107" fill="none" xmlns="http://www.w3.org/2000/svg">
<path d="M120.137 102.553H113.972V42.047H120.137C120.555 42.0471 120.962 41.9074 121.292 41.6502C121.622 41.3931 121.856 41.0332 121.957 40.6277C122.059 40.2222 122.022 39.7945 121.852 39.4125C121.682 39.0305 121.39 38.7162 121.02 38.5194L65.8002 9.06945C65.5326 8.92702 65.2344 8.85136 64.9312 8.84894C64.628 8.84651 64.3287 8.91739 64.0588 9.05553L6.69412 38.5055C6.31944 38.6975 6.02032 39.0098 5.84489 39.3922C5.66946 39.7746 5.62791 40.2048 5.72692 40.6136C5.82594 41.0224 6.05977 41.386 6.39079 41.646C6.72182 41.906 7.13079 42.0473 7.55191 42.047H13.7173V102.553H7.55191C7.05425 102.553 6.57698 102.751 6.22508 103.102C5.87318 103.454 5.67549 103.93 5.67549 104.427C5.67549 104.924 5.87318 105.401 6.22508 105.753C6.57698 106.104 7.05425 106.302 7.55191 106.302H120.137C120.635 106.302 121.112 106.104 121.464 105.753C121.816 105.401 122.013 104.924 122.013 104.427C122.013 103.93 121.816 103.454 121.464 103.102C121.112 102.751 120.635 102.553 120.137 102.553ZM110.219 102.553H105.394V42.047H110.219V102.553ZM91.7226 74.7097H79.6599V48.7402C79.6599 48.2431 79.4622 47.7665 79.1103 47.415C78.7584 47.0635 78.2811 46.8661 77.7835 46.8661H49.9053C49.4076 46.8661 48.9304 47.0635 48.5785 47.415C48.2266 47.7665 48.0289 48.2431 48.0289 48.7402V74.7097H35.9662C35.4686 74.7097 34.9913 74.9072 34.6394 75.2586C34.2875 75.6101 34.0898 76.0868 34.0898 76.5838V102.553H26.048V42.047H101.641V102.553H93.599V76.5838C93.599 76.0868 93.4013 75.6101 93.0494 75.2586C92.6975 74.9072 92.2202 74.7097 91.7226 74.7097ZM63.8444 74.7097H51.7817V50.6143H58.3942V58.0217C58.3941 58.3748 58.4939 58.7206 58.682 59.0195C58.8701 59.3184 59.139 59.5581 59.4575 59.7111C59.776 59.864 60.1314 59.924 60.4826 59.8842C60.8338 59.8443 61.1665 59.7062 61.4426 59.4857L63.8444 57.5655L66.2462 59.4846C66.5222 59.7051 66.855 59.8432 67.2062 59.8831C67.5574 59.923 67.9127 59.863 68.2313 59.71C68.5498 59.557 68.8186 59.3173 69.0068 59.0184C69.1949 58.7195 69.2946 58.3737 69.2946 58.0207V50.6143H75.9071V74.7097H63.8444ZM48.208 78.4579H51.6037V81.9662L51.0783 81.5453C50.7455 81.2795 50.332 81.1347 49.9058 81.1347C49.4797 81.1347 49.0662 81.2795 48.7333 81.5453L48.208 81.9662V78.4579ZM62.147 50.6143H65.5428V54.1226L65.0174 53.7017C64.6846 53.4359 64.2711 53.2911 63.8449 53.2911C63.4188 53.2911 63.0053 53.4359 62.6724 53.7017L62.147 54.1226V50.6143ZM76.0861 78.4579H79.4819V81.9662L78.9565 81.5453C78.6237 81.2795 78.2102 81.1347 77.784 81.1347C77.3579 81.1347 76.9444 81.2795 76.6115 81.5453L76.0861 81.9662V78.4579ZM64.8995 12.839L112.639 38.2988H15.3063L64.8995 12.839ZM17.4701 42.047H22.2952V102.553H17.4701V42.047ZM37.8426 78.4579H44.4551V85.8654C44.4551 86.2184 44.5548 86.5642 44.7429 86.8631C44.9311 87.162 45.1999 87.4017 45.5184 87.5547C45.837 87.7077 46.1923 87.7677 46.5435 87.7278C46.8947 87.6879 47.2274 87.5498 47.5035 87.3293L49.9053 85.4092L52.3071 87.3282C52.5832 87.5487 52.9159 87.6868 53.2671 87.7267C53.6183 87.7666 53.9736 87.7066 54.2922 87.5536C54.6107 87.4006 54.8795 87.1609 55.0677 86.862C55.2558 86.5632 55.3555 86.2173 55.3555 85.8643V78.4579H61.968V102.553H37.8426V78.4579ZM65.7208 102.553V78.4579H72.3333V85.8654C72.3332 86.2184 72.433 86.5642 72.6211 86.8631C72.8092 87.162 73.078 87.4017 73.3966 87.5547C73.7151 87.7077 74.0705 87.7677 74.4217 87.7278C74.7729 87.6879 75.1056 87.5498 75.3817 87.3293L77.7835 85.4092L80.1853 87.3282C80.4613 87.5487 80.7941 87.6868 81.1453 87.7267C81.4965 87.7666 81.8518 87.7066 82.1704 87.5536C82.4889 87.4006 82.7577 87.1609 82.9459 86.862C83.134 86.5632 83.2337 86.2173 83.2337 85.8643V78.4579H89.8462V102.553H65.7208Z" fill="white"/>
</svg>
